<svg width="32" height="32" viewBox="0 0 32 32" fill="none" xmlns="http://www.w3.org/2000/svg">
<g clip-path="url(#clip0_999_689)">
<path d="M16 0C7.1632 0 0 7.17001 0 16.0152C0 24.6554 6.84 31.6781 15.3936 32V20.8822H11.6448V16.5181H15.3936V13.307C15.3936 9.58511 17.6672 7.55598 20.9856 7.55598C22.104 7.55277 23.2208 7.61043 24.3328 7.72414V11.6158H22.048C20.24 11.6158 19.888 12.471 19.888 13.733V16.5117H24.208L23.6464 20.8758H19.8624V31.5404C26.8288 29.8091 32 23.5247 32 16.0152C32 7.17001 24.8368 0 16 0Z" fill="#302D2D"/>
</g>
<defs>
<clipPath id="clip0_999_689">
<rect width="32" height="32" fill="white"/>
</clipPath>
</defs>
</svg>
