<svg width="32" height="32" viewBox="0 0 32 32" fill="none" xmlns="http://www.w3.org/2000/svg">
<path fill-rule="evenodd" clip-rule="evenodd" d="M16 0C7.16344 0 0 7.16344 0 16C0 24.8366 7.16344 32 16 32C24.8366 32 32 24.8366 32 16C32 7.16344 24.8366 0 16 0ZM25.94 11.904C25.9267 11.0636 25.7687 10.2318 25.473 9.445C25.2156 8.78202 24.8227 8.18005 24.3194 7.67759C23.8161 7.17513 23.2134 6.78325 22.55 6.527C21.7725 6.23565 20.9512 6.07809 20.121 6.061C19.052 6.014 18.714 6 16.001 6H16.0006C13.288 6 12.943 6 11.881 6.061C11.0508 6.07809 10.2296 6.23565 9.452 6.527C8.7883 6.78324 8.1854 7.17523 7.6819 7.67787C7.1784 8.18051 6.78538 8.78273 6.528 9.446C6.23606 10.222 6.07815 11.042 6.061 11.871C6.014 12.938 6 13.276 6 15.985C6 18.694 6 19.038 6.061 20.099C6.07813 20.928 6.23604 21.748 6.528 22.524C6.78539 23.187 7.1783 23.7889 7.68162 24.2914C8.18494 24.7939 8.78758 25.1858 9.451 25.442C10.2265 25.7451 11.0479 25.9142 11.88 25.942C12.949 25.989 13.287 26.003 16 26.003H16.0005C18.713 26.003 19.0581 26.003 20.12 25.942C20.9502 25.925 21.7715 25.7674 22.549 25.476C23.2124 25.2197 23.8151 24.8279 24.3184 24.3254C24.8217 23.823 25.2146 23.221 25.472 22.558C25.7639 21.7819 25.9218 20.9619 25.939 20.133C25.986 19.066 26 18.728 26 16.019V15.8896V15.8894C26 13.2986 26 12.9478 25.94 11.904ZM24.133 20.016H24.12C24.1143 20.6549 23.9975 21.288 23.775 21.887C23.6086 22.3189 23.3536 22.7111 23.0263 23.0383C22.6991 23.3656 22.3069 23.6206 21.875 23.787C21.2812 24.0067 20.6541 24.1231 20.021 24.131L20.0006 24.1319H20.0006C18.9611 24.1782 18.6505 24.192 15.961 24.192C13.254 24.192 12.977 24.192 11.901 24.131C11.2679 24.123 10.6408 24.0067 10.047 23.787C9.61347 23.6219 9.21953 23.3674 8.8908 23.0401C8.56208 22.7127 8.30592 22.3198 8.139 21.887C7.91877 21.2943 7.80206 20.6682 7.794 20.036L7.79313 20.0165C7.74683 18.9782 7.733 18.6682 7.733 15.983V15.9826C7.733 13.281 7.733 13.0039 7.794 11.93C7.7997 11.2911 7.91644 10.658 8.139 10.059C8.30587 9.62612 8.562 9.23323 8.89073 8.90588C9.21946 8.57852 9.61343 8.32404 10.047 8.159C10.6408 7.93926 11.2679 7.82291 11.901 7.81499L11.9212 7.8141C12.9609 7.76782 13.2713 7.754 15.961 7.754H15.9614C18.668 7.754 18.9451 7.754 20.021 7.81499C20.6541 7.82289 21.2812 7.93924 21.875 8.159C22.3069 8.32537 22.6991 8.58041 23.0263 8.90766C23.3536 9.23492 23.6086 9.62713 23.775 10.059C23.9952 10.6517 24.1119 11.2778 24.12 11.91L24.1209 11.9295V11.9295C24.1672 12.9678 24.181 13.2778 24.181 15.963V15.9637C24.181 18.665 24.181 18.9561 24.134 20.014L24.133 20.016ZM22.5094 10.631C22.5094 11.2634 21.9968 11.776 21.3644 11.776C20.732 11.776 20.2194 11.2634 20.2194 10.631C20.2194 9.99864 20.732 9.486 21.3644 9.486C21.9968 9.486 22.5094 9.99864 22.5094 10.631ZM13.0356 11.5516C13.9105 10.9636 14.94 10.6482 15.9941 10.645C16.6955 10.644 17.3902 10.7811 18.0386 11.0485C18.687 11.316 19.2764 11.7085 19.7731 12.2037C20.2698 12.6989 20.6641 13.2871 20.9335 13.9347C21.2028 14.5823 21.342 15.2766 21.3431 15.978C21.3431 17.0321 21.0307 18.0626 20.4454 18.9392C19.8601 19.8159 19.0282 20.4994 18.0546 20.9035C17.0811 21.3076 16.0096 21.4142 14.9755 21.2097C13.9415 21.0052 12.9912 20.4989 12.2447 19.7546C11.4983 19.0104 10.9891 18.0617 10.7815 17.0282C10.5739 15.9948 10.6773 14.923 11.0785 13.9482C11.4797 12.9735 12.1607 12.1395 13.0356 11.5516ZM14.0723 18.8564C14.6407 19.2382 15.3094 19.4431 15.9941 19.445V19.442C16.9136 19.4434 17.796 19.0796 18.4475 18.4306C19.0989 17.7816 19.466 16.9005 19.4681 15.981C19.4681 15.2963 19.2652 14.627 18.885 14.0576C18.5048 13.4881 17.9644 13.0442 17.332 12.7817C16.6996 12.5192 16.0036 12.45 15.332 12.5829C14.6603 12.7157 14.043 13.0446 13.5582 13.5281C13.0734 14.0115 12.7427 14.6278 12.6079 15.2991C12.4731 15.9704 12.5403 16.6666 12.8009 17.2997C13.0616 17.9329 13.504 18.4746 14.0723 18.8564Z" fill="#302D2D"/>
</svg>
