<svg width="25" height="24" viewBox="0 0 25 24" fill="none" xmlns="http://www.w3.org/2000/svg">
<path d="M14.3562 2H9.63115C7.3124 2 5.43115 3.92394 5.43115 6.2953C5.43115 7.05593 6.04365 7.68233 6.83115 7.68233C7.5749 7.68233 8.23115 7.01119 8.23115 6.2953C8.23115 5.48993 8.84365 4.86353 9.63115 4.86353H14.3562C15.5812 4.86353 16.6312 5.89262 16.6312 7.14541C16.6312 8.04027 16.1499 8.84564 15.2749 9.29307L10.9874 11.8434C10.5499 12.1119 10.3312 12.5593 10.3312 13.0515V14.8412C10.3312 15.6465 10.9437 16.2729 11.7312 16.2729C12.4749 16.2729 13.1312 15.6465 13.1312 14.8412V13.9016L16.6312 11.7987C18.3374 10.9038 19.4312 9.11409 19.4312 7.14541C19.4312 4.28188 17.1562 2 14.3562 2ZM11.7312 18.4206C10.7249 18.4206 9.98115 19.226 9.98115 20.2103C9.98115 21.2394 10.7249 22 11.7312 22C12.6937 22 13.4812 21.1946 13.4812 20.2103C13.4812 19.2707 12.6937 18.4206 11.7312 18.4206Z" fill="white"/>
</svg>
