<svg width="81" height="40" viewBox="0 0 81 40" fill="none" xmlns="http://www.w3.org/2000/svg">
<g clip-path="url(#clip0_1003_337)">
<path d="M62.8433 22.6174C64.3453 22.4311 65.9931 22.112 67.6561 21.6961C68.2951 21.0426 67.4796 20.3674 66.6998 20.4826C64.8974 20.3674 62.5873 21.9878 62.8433 22.6174Z" fill="#FF6200"/>
<path d="M64.979 18.2294C63.8105 17.6668 55.5205 17.5318 54.9219 19.3617C55.6094 20.8126 56.3887 21.9158 57.4612 22.3757C58.6058 22.8662 60.5539 22.8975 62.8419 22.6176C64.1187 21.9467 65.4297 21.2263 66.6986 20.4828C67.2082 19.4223 66.1209 18.477 64.979 18.2294Z" fill="#FF8000"/>
<path d="M65.437 1.14308C60.1671 1.64585 54.9353 2.97863 53.5861 4.83764C51.9448 7.0992 52.5503 13.6333 54.4307 18.2395C54.5909 18.6316 54.7539 19.0073 54.9223 19.3621C58.4144 19.0938 61.9487 18.7058 64.9794 18.2299C62.2663 14.5774 61.3368 12.4508 60.413 10.2399C58.9703 6.78276 58.1026 2.40784 65.437 1.14308Z" fill="#B3FA1B"/>
<path d="M78.9927 4.82245C78.9649 4.76133 78.937 4.7006 78.909 4.64097C78.4698 3.60449 77.8042 2.48303 76.9186 2.00411C76.5235 1.79018 76.0241 1.60942 75.4417 1.46109C74.6823 2.40756 75.0899 4.028 75.8857 4.74755C76.8568 5.10829 77.9441 5.24331 78.9927 4.82245Z" fill="#BF0474"/>
<path d="M72.2366 4.56828C72.2961 4.67115 72.5083 4.70333 72.7542 4.78496C73.5956 5.24346 75.4981 5.10842 75.8878 4.74768C75.7841 3.72601 75.6362 2.63051 75.444 1.46123C74.0785 1.11313 72.2555 0.939451 70.2383 0.923798C70.062 2.27267 71.5195 3.34712 72.2366 4.56828Z" fill="#8529FE"/>
<path d="M65.5815 5.61795C67.2106 5.22141 69.5099 4.89528 72.754 4.78498C72.6946 4.67764 72.6351 4.57253 72.5755 4.46966C71.8585 3.24851 71.0784 2.06498 70.238 0.923813C68.6353 0.914866 67.0334 0.987888 65.438 1.14259C57.2938 2.16975 58.8332 6.90227 60.2769 10.3591C61.2007 12.5699 62.2673 14.5769 64.9804 18.2293H64.9834C62.1472 14.3343 59.3627 7.13112 65.5815 5.61795Z" fill="#84D600"/>
<path d="M73.7791 15.3476L73.7697 15.3584C72.2015 17.0094 66.7002 20.1308 66.7002 20.4826C67.0007 20.8684 67.3011 21.2437 67.6567 21.6961C73.0867 20.338 78.682 17.9639 79.8709 15.9789C80.8471 14.3487 80.5161 8.21224 78.9931 4.82255C77.8894 4.77932 76.8543 4.75446 75.8881 4.74802C75.9061 8.6193 75.7754 13.2936 73.7791 15.3476Z" fill="#E22B1A"/>
<path d="M66.6998 20.4828C69.551 18.8109 72.2011 17.0096 73.7694 15.3586L73.7787 15.3478C73.5294 15.6045 73.2601 15.8412 72.9733 16.0559C71.8737 16.8781 68.8362 17.6246 64.9834 18.2295C65.0181 18.2774 65.0531 18.325 65.088 18.3722" fill="#C20419"/>
<path d="M73.7786 15.3475C75.775 13.2936 76.4167 9.96537 75.8877 4.7476C74.7559 4.73863 73.7134 4.75244 72.7539 4.78485C74.4846 7.92671 75.9465 13.045 73.7786 15.3475Z" fill="#B820FF"/>
<path d="M16.5073 8.16789C15.6626 7.67374 14.6881 7.42445 13.6125 7.42445C12.4731 7.42445 11.4282 7.69559 10.5087 8.22911C9.59146 8.76263 8.85236 9.5017 8.31564 10.4223C7.77893 11.3428 7.50617 12.3924 7.50617 13.5425C7.50617 14.6926 7.78331 15.7684 8.32884 16.6889C8.87436 17.6095 9.62447 18.3464 10.5593 18.8821C11.4942 19.4156 12.5698 19.6867 13.7599 19.6867C14.6859 19.6867 15.5658 19.5118 16.3753 19.1663C17.187 18.8208 17.8909 18.3114 18.4694 17.6532L18.5178 17.5986L16.9802 16.0439L16.9252 16.1073C16.5425 16.5534 16.0761 16.8901 15.5394 17.1131C15.0027 17.3362 14.4044 17.4499 13.7621 17.4499C12.9922 17.4499 12.3015 17.2837 11.7076 16.9579C11.118 16.6343 10.6561 16.1664 10.3372 15.5716C10.1568 15.2327 10.0248 14.8566 9.9456 14.4499H19.0677L19.0809 14.3887C19.1293 14.1591 19.1645 13.947 19.1799 13.7546C19.1975 13.5643 19.2041 13.385 19.2041 13.2232C19.2041 12.1059 18.9643 11.0979 18.4936 10.2276C18.0207 9.35521 17.352 8.66205 16.5073 8.16789ZM9.95001 12.4623C10.027 12.084 10.148 11.7364 10.313 11.4281C10.6165 10.8574 11.0521 10.4069 11.6108 10.0899C12.1695 9.77284 12.8272 9.61103 13.5641 9.61103C14.301 9.61103 14.8751 9.75971 15.37 10.0527C15.8628 10.3457 16.2499 10.7634 16.5205 11.2925C16.6898 11.6227 16.8064 12.0163 16.8702 12.4645L9.95001 12.4623ZM43.6999 7.66937V9.11686C43.3082 8.64676 42.8398 8.26629 42.3007 7.98422C41.5948 7.6125 40.7829 7.42445 39.8899 7.42445C38.7967 7.42445 37.8025 7.69996 36.9336 8.24442C36.0647 8.78669 35.3695 9.52795 34.8637 10.4507C34.3601 11.3712 34.1026 12.4208 34.1026 13.5687C34.1026 14.7167 34.3578 15.7684 34.8637 16.6889C35.3673 17.6095 36.0647 18.3486 36.9336 18.8821C37.8025 19.4178 38.7989 19.6889 39.8899 19.6889C40.7829 19.6889 41.5992 19.5009 42.314 19.1292C42.8506 18.8493 43.3171 18.4732 43.6999 18.0074V19.444H46.0952V7.66937H43.6999ZM43.8471 13.5687C43.8471 14.7014 43.515 15.6416 42.8595 16.3653C42.2062 17.0869 41.3306 17.4521 40.2594 17.4521C39.5379 17.4521 38.8913 17.2837 38.3303 16.9491C37.7717 16.6168 37.3294 16.1532 37.0173 15.5738C36.7049 14.9922 36.5464 14.31 36.5464 13.5447C36.5464 12.7794 36.7049 12.1212 37.0173 11.5396C37.3294 10.9601 37.7673 10.4966 38.3172 10.1621C38.8671 9.82968 39.5116 9.65913 40.233 9.65913C40.9545 9.65913 41.5881 9.82312 42.1247 10.1489C42.6594 10.4747 43.084 10.9361 43.3875 11.5243C43.6932 12.1147 43.8471 12.8012 43.8471 13.5687ZM25.9967 7.42445C24.6813 7.42445 23.6585 7.87926 22.9568 8.77576C22.937 8.79981 22.9194 8.82606 22.8996 8.8501V7.66937H20.5283V19.444H22.8996V12.7619C22.8996 11.7123 23.1569 10.923 23.6651 10.4201C24.1732 9.91714 24.8331 9.65913 25.6273 9.65913C25.9923 9.65913 26.3202 9.71162 26.6015 9.81437L26.7071 9.85374V7.48132L26.6389 7.47257C26.4036 7.43976 26.1991 7.42445 25.9967 7.42445ZM34.3512 9.85374V7.48132L34.283 7.47257C34.0477 7.43976 33.8431 7.42445 33.6405 7.42445C32.3253 7.42445 31.3023 7.87926 30.6008 8.77576C30.5809 8.79981 30.5634 8.82606 30.5434 8.8501V7.66937H28.1722V19.444H30.5434V12.7619C30.5434 11.7123 30.8009 10.923 31.309 10.4201C31.817 9.91714 32.477 9.65913 33.2711 9.65913C33.6364 9.65913 33.964 9.71162 34.2456 9.81437L34.3512 9.85374ZM3.17937 12.8012V10.1402H5.7794V7.65406H3.17937V3.67886H0.581543V12.8012C0.581543 14.8938 1.12927 16.643 2.16532 17.8609C3.16837 19.0395 4.60697 19.6889 6.21494 19.6889V17.1066C4.31441 17.1066 3.17937 15.4973 3.17937 12.8012Z" fill="white"/>
<path d="M0.80957 38.8339V29.2488H1.70577L1.79913 31.5713L1.57508 31.5346C1.6871 31.1414 1.86136 30.791 2.09786 30.4838C2.34681 30.1766 2.63309 29.9185 2.95672 29.7096C3.29279 29.4884 3.65998 29.3227 4.05831 29.2119C4.45661 29.1013 4.87982 29.0461 5.32792 29.0461C5.80093 29.0461 6.23034 29.1261 6.61621 29.2857C7.01454 29.4454 7.35682 29.7343 7.64312 30.1521C7.9294 30.5698 8.15345 31.1596 8.31527 31.9217L7.94185 31.6637L8.07254 31.3502C8.19702 31.0554 8.37749 30.7728 8.614 30.5023C8.8505 30.2196 9.13055 29.974 9.4542 29.765C9.77781 29.5438 10.1388 29.3718 10.5371 29.2488C10.9479 29.1137 11.3835 29.0461 11.8441 29.0461C12.4913 29.0461 13.0452 29.1873 13.5058 29.4699C13.9663 29.7526 14.3148 30.189 14.5514 30.7788C14.8003 31.3686 14.9248 32.1183 14.9248 33.0277V38.8339H13.9912V33.0644C13.9912 32.3516 13.8979 31.7679 13.7112 31.3132C13.5369 30.8464 13.2693 30.5023 12.9083 30.2811C12.5598 30.0476 12.1241 29.9309 11.6013 29.9309C11.1159 29.9309 10.674 30.017 10.2757 30.189C9.87741 30.3487 9.53511 30.5698 9.24881 30.8525C8.96253 31.1351 8.73848 31.4607 8.57666 31.8294C8.41484 32.1859 8.33395 32.5667 8.33395 32.9723V38.8339H7.40039V33.0644C7.40039 32.3516 7.30705 31.7679 7.12034 31.3132C6.94606 30.8464 6.67844 30.5023 6.31748 30.2811C5.95652 30.0476 5.51463 29.9309 4.99185 29.9309C4.51886 29.9309 4.08319 30.017 3.68489 30.189C3.28656 30.3487 2.94426 30.5698 2.65799 30.8525C2.3717 31.1351 2.14765 31.4607 1.98584 31.8294C1.82402 32.1859 1.74311 32.5667 1.74311 32.9723V38.8339H0.80957Z" fill="white"/>
<path d="M21.1304 39.0184C20.2466 39.0184 19.4562 38.8033 18.7592 38.3731C18.0621 37.943 17.5082 37.3532 17.0975 36.6037C16.6991 35.854 16.5 35.0001 16.5 34.0414C16.5 33.0707 16.7054 32.2105 17.1161 31.4607C17.5393 30.7113 18.0995 30.1212 18.7965 29.6913C19.4936 29.2612 20.2715 29.0461 21.1304 29.0461C21.6283 29.0461 22.1013 29.1197 22.5494 29.2673C22.9975 29.4148 23.402 29.6235 23.763 29.894C24.1239 30.1521 24.4351 30.4593 24.6965 30.8155C24.9579 31.172 25.1446 31.5592 25.2566 31.9769L24.8832 31.7373L24.9766 29.2488H25.8727V38.8339H24.9392V36.4378L25.2566 36.0876C25.1446 36.4929 24.9579 36.874 24.6965 37.2302C24.4351 37.5867 24.1239 37.9 23.763 38.1705C23.402 38.4407 22.9975 38.6497 22.5494 38.7972C22.1013 38.9447 21.6283 39.0184 21.1304 39.0184ZM21.2611 38.0966C21.9706 38.0966 22.6054 37.9245 23.1655 37.5807C23.7381 37.2242 24.1862 36.7449 24.5098 36.1427C24.8459 35.5284 25.0139 34.8217 25.0139 34.0229C25.0139 33.2365 24.8521 32.5422 24.5285 31.94C24.2048 31.3256 23.7567 30.8464 23.1842 30.5023C22.624 30.146 21.983 29.9676 21.2611 29.9676C20.5267 29.9676 19.8732 30.146 19.3006 30.5023C18.7405 30.8464 18.2986 31.3256 17.975 31.94C17.6514 32.5422 17.4895 33.2365 17.4895 34.0229C17.4895 34.7971 17.6451 35.4914 17.9563 36.106C18.2799 36.7204 18.7218 37.2057 19.282 37.5622C19.8545 37.9185 20.5142 38.0966 21.2611 38.0966Z" fill="white"/>
<path d="M28.6626 38.8339V29.2488H29.5963V38.8339H28.6626ZM29.1293 27.2395C28.8556 27.2395 28.6439 27.1659 28.4945 27.0184C28.3453 26.8709 28.2705 26.6682 28.2705 26.4101C28.2705 26.1644 28.3453 25.9678 28.4945 25.8203C28.6439 25.6606 28.8556 25.5807 29.1293 25.5807C29.4033 25.5807 29.6148 25.6543 29.7642 25.8018C29.9136 25.9493 29.9882 26.152 29.9882 26.4101C29.9882 26.656 29.9136 26.8587 29.7642 27.0184C29.6148 27.1659 29.4033 27.2395 29.1293 27.2395Z" fill="white"/>
<path d="M32.4189 38.8339V25.1936H33.3526V38.8339H32.4189Z" fill="white"/>
</g>
<defs>
<clipPath id="clip0_1003_337">
<rect width="80" height="38.1538" fill="white" transform="translate(0.431152 0.92308)"/>
</clipPath>
</defs>
</svg>
