<svg xmlns="http://www.w3.org/2000/svg" width="88" height="24" viewBox="0 0 88 24" fill="none"><path d="M68.32 23.805c1.649-.204 3.457-.554 5.282-1.01.7-.718-.194-1.459-1.05-1.332-1.977-.127-4.512 1.652-4.232 2.342" fill="#FF6200"/><path d="M70.664 18.99c-1.282-.617-10.38-.765-11.036 1.243.754 1.592 1.61 2.803 2.786 3.307 1.256.538 3.394.573 5.905.266 1.4-.736 2.84-1.527 4.232-2.343.559-1.164-.634-2.2-1.887-2.473" fill="#FF8000"/><path d="M71.166.241c-5.782.552-11.523 2.015-13.004 4.055-1.8 2.481-1.136 9.651.927 14.705q.263.647.54 1.232c3.832-.294 7.71-.72 11.035-1.242-2.977-4.008-3.997-6.341-5.01-8.767C64.07 6.43 63.117 1.628 71.166.24" fill="#B3FA1B"/><path d="m86.042 4.279-.092-.2c-.482-1.137-1.213-2.367-2.184-2.893-.434-.235-.982-.433-1.621-.596-.833 1.039-.386 2.817.487 3.607 1.066.395 2.259.544 3.41.082" fill="#BF0474"/><path d="M78.628 4c.065.113.298.148.568.238.923.503 3.01.355 3.438-.041A59 59 0 0 0 82.147.59C80.649.209 78.648.018 76.435 0c-.195 1.48 1.405 2.66 2.192 4" fill="#8529FE"/><path d="M71.325 5.152c1.788-.435 4.31-.793 7.87-.914q-.097-.177-.195-.346A45 45 0 0 0 76.435 0q-2.64-.015-5.267.24c-8.937 1.127-7.248 6.32-5.664 10.113 1.014 2.426 2.184 4.629 5.162 8.636h.003c-3.112-4.274-6.168-12.178.656-13.838" fill="#84D600"/><path d="m80.32 15.828-.01.012c-1.721 1.812-7.758 5.237-7.758 5.623.33.423.66.835 1.05 1.331 5.958-1.49 12.098-4.095 13.403-6.273 1.07-1.789.708-8.522-.964-12.242a105 105 0 0 0-3.407-.082c.02 4.248-.123 9.377-2.314 11.631" fill="#E22B1A"/><path d="M72.552 21.463c3.13-1.835 6.037-3.811 7.758-5.623l.01-.012q-.41.424-.884.777c-1.206.903-4.54 1.722-8.767 2.386l.115.156" fill="#C20419"/><path d="M80.32 15.828c2.19-2.254 2.895-5.906 2.314-11.631a83 83 0 0 0-3.438.04c1.899 3.448 3.503 9.065 1.124 11.591" fill="#B820FF"/><path d="M17.476 7.95c-.927-.542-1.997-.816-3.177-.816-1.25 0-2.397.298-3.406.883a6.6 6.6 0 0 0-2.406 2.407c-.59 1.01-.889 2.161-.889 3.423s.305 2.443.903 3.453a6.65 6.65 0 0 0 2.448 2.407c1.026.585 2.206.883 3.512.883a7.3 7.3 0 0 0 2.87-.572 6.34 6.34 0 0 0 2.297-1.66l.054-.06-1.688-1.706-.06.07c-.42.49-.932.859-1.52 1.104a5.1 5.1 0 0 1-1.95.37c-.846 0-1.604-.183-2.255-.54a3.7 3.7 0 0 1-1.504-1.522 4.4 4.4 0 0 1-.43-1.23h10.01l.015-.068q.081-.379.108-.696a6 6 0 0 0 .027-.583c0-1.226-.263-2.332-.78-3.287a5.76 5.76 0 0 0-2.18-2.26m-7.196 4.712q.127-.624.398-1.135a3.6 3.6 0 0 1 1.424-1.468c.614-.348 1.335-.526 2.144-.526s1.438.164 1.982.485a3.3 3.3 0 0 1 1.262 1.36c.186.363.314.795.384 1.287zm37.034-5.26v1.59a5 5 0 0 0-1.535-1.244c-.775-.408-1.666-.614-2.646-.614-1.199 0-2.29.302-3.244.9a6.5 6.5 0 0 0-2.27 2.42c-.553 1.01-.836 2.163-.836 3.422s.28 2.414.835 3.424a6.37 6.37 0 0 0 2.271 2.407c.954.587 2.047.885 3.244.885.98 0 1.876-.206 2.66-.614a4.9 4.9 0 0 0 1.521-1.231v1.576h2.629V7.403zm.162 6.474c0 1.243-.365 2.275-1.084 3.069-.717.792-1.678 1.192-2.853 1.192-.792 0-1.501-.184-2.117-.551a3.86 3.86 0 0 1-1.44-1.51c-.343-.638-.517-1.386-.517-2.226s.174-1.562.516-2.2a3.9 3.9 0 0 1 1.427-1.512c.603-.365 1.31-.552 2.102-.552s1.487.18 2.076.538a3.74 3.74 0 0 1 1.386 1.509c.335.648.504 1.401.504 2.243M27.888 7.134c-1.443 0-2.565.5-3.335 1.483l-.063.081V7.403h-2.602v12.92h2.602v-7.332c0-1.152.282-2.018.84-2.57.557-.552 1.282-.835 2.153-.835.4 0 .76.058 1.069.17l.116.044V7.196l-.075-.01a5 5 0 0 0-.705-.052M37.056 9.8V7.196l-.075-.01a5 5 0 0 0-.705-.052c-1.443 0-2.566.5-3.336 1.483l-.062.081V7.403h-2.602v12.92h2.601v-7.332c0-1.152.283-2.018.84-2.57.558-.552 1.282-.835 2.154-.835.4 0 .76.058 1.069.17zM2.85 13.034v-2.92h2.853V7.386H2.85V3.024H0v10.01c0 2.296.601 4.216 1.738 5.552 1.1 1.293 2.68 2.006 4.444 2.006v-2.834c-2.086 0-3.331-1.765-3.331-4.724" fill="#FF8000"/></svg>