<svg xmlns="http://www.w3.org/2000/svg" width="24" height="24" viewBox="0 0 4 4"><circle fill="#929292" cx="2" cy="2.059" r=".28"/><g fill="#929292"><path d="M1.392 2.04c.01-.33.278-.59.608-.59l.386-.374c-.126-.02-.254-.034-.386-.034-.828 0-1.558.413-2 1.043.18.258.412.476.676.648l.716-.694zM3.237 1.384l-.633.614c.002.02.006.04.006.06 0 .338-.273.612-.61.612-.027 0-.054-.005-.08-.008l-.424.41c.163.034.33.056.504.056.828 0 1.56-.413 2-1.043-.2-.286-.462-.523-.763-.7z"/></g><path fill="#929292" d="M.643 3.484c-.04 0-.08-.016-.11-.047-.058-.06-.056-.157.004-.215L3.284.56C3.344.5 3.44.5 3.5.56c.06.06.058.157-.003.216L.75 3.44c-.03.03-.068.044-.107.044z"/></svg>